<svg width="34" height="28" fill="none" xmlns="http://www.w3.org/2000/svg"><path d="M.208 27.736c0-3.008.064-6.56.192-10.656.192-5.824 1.12-10.048 2.784-12.672C4.848 1.784 7.792.472 12.016.472l1.152 4.896c-2.304.064-3.872.832-4.704 2.304-.768 1.408-1.152 3.52-1.152 6.336h6.72v13.728H.208zm19.68 0c0-3.008.064-6.56.192-10.656.192-5.824 1.12-10.048 2.784-12.672C24.528 1.784 27.472.472 31.696.472l1.152 4.896c-2.304.064-3.872.832-4.704 2.304-.768 1.408-1.152 3.52-1.152 6.336h6.72v13.728H19.888z" fill="#F7654A"/></svg>